<svg viewBox="0 0 120 120" xmlns="http://www.w3.org/2000/svg">
  <defs>
    <linearGradient id="bgGradient" x1="0%" y1="0%" x2="100%" y2="100%">
      <stop offset="0%" style="stop-color:#8B5CF6;stop-opacity:1" />
      <stop offset="50%" style="stop-color:#7C3AED;stop-opacity:1" />
      <stop offset="100%" style="stop-color:#8B5CF6;stop-opacity:1" />
    </linearGradient>
  </defs>
  
  <!-- Background circle -->
  <circle cx="60" cy="60" r="58" fill="url(#bgGradient)" stroke="#6D28D9" stroke-width="2"/>
  
  <!-- Chart/Graph bars - representing analytics -->
  <g transform="translate(15, 30)" fill="white">
    <rect x="0" y="40" width="6" height="20" rx="1" opacity="0.9" />
    <rect x="8" y="30" width="6" height="30" rx="1" opacity="0.9" />
    <rect x="16" y="20" width="6" height="40" rx="1" />
    <rect x="24" y="25" width="6" height="35" rx="1" opacity="0.9" />
    <rect x="32" y="15" width="6" height="45" rx="1" />
  </g>
  
  <!-- Upward trending arrow -->
  <g transform="translate(50, 20)" fill="white">
    <path d="M5 25 L15 15 L25 25 L20 25 L20 35 L10 35 L10 25 Z" opacity="0.95" />
    <path d="M15 15 L25 25 M15 15 L25 15 M15 15 L15 25" 
          fill="none" 
          stroke="white" 
          stroke-width="1.5" 
          opacity="0.8"/>
  </g>
  
  <!-- Shopping cart with dollar sign -->
  <g transform="translate(75, 35)" fill="white">
    <!-- Cart body -->
    <path d="M5 10 L25 10 L27 20 L3 20 Z" rx="2" />
    <!-- Cart wheels -->
    <circle cx="8" cy="25" r="2" />
    <circle cx="22" cy="25" r="2" />
    <!-- Cart handle -->
    <path d="M0 5 L5 5 L5 10" fill="none" stroke="white" stroke-width="2"/>
    <!-- Dollar sign in cart -->
    <text x="15" y="17" font-size="8" text-anchor="middle" font-weight="bold" fill="white">$</text>
  </g>
  
  <!-- Infinity symbol at bottom -->
  <g transform="translate(30, 75)">
    <path d="M10 10 Q20 5 30 10 Q40 15 50 10 Q60 5 70 10 Q60 15 50 10 Q40 5 30 10 Q20 15 10 10" 
          fill="none" 
          stroke="white" 
          stroke-width="3"
          opacity="0.8"/>
  </g>
  
  <!-- Additional decorative elements -->
  <g opacity="0.6" fill="white">
    <circle cx="90" cy="25" r="2" />
    <circle cx="95" cy="30" r="1.5" />
    <circle cx="25" cy="85" r="1.5" />
    <circle cx="85" cy="85" r="2" />
  </g>
</svg>